{"asset":{"version":"2.0","generator":"babylon.js glTF exporter for 3dsmax 2018 v20200429.2"},"scene":0,"scenes":[{"nodes":[0,1,2,3,4]}],"nodes":[{"mesh":0,"translation":[0.0,0.142720431,1.38679006E-08],"rotation":[0.7071068,0.0,0.0,0.7071067],"scale":[0.099999994,0.099999994,0.099999994],"name":"Browning_hp"},{"mesh":1,"translation":[0.178241655,0.359958023,0.0068512694],"rotation":[0.7071068,0.0,0.0,0.7071067],"scale":[0.099999994,0.099999994,0.099999994],"name":"Trigger"},{"mesh":2,"translation":[-0.357896715,0.171630517,-0.00091643323],"rotation":[0.7071068,0.0,0.0,0.7071067],"scale":[0.099999994,0.099999994,0.099999994],"name":"Bullet"},{"mesh":3,"translation":[-0.243619308,-0.2571912,-0.00183133688],"rotation":[0.7071068,0.0,0.0,0.7071067],"scale":[0.099999994,0.099999994,0.099999994],"name":"Clip"},{"name":"Default light"}],"meshes":[{"primitives":[{"attributes":{"POSITION":1,"NORMAL":2,"TEXCOORD_0":3,"TEXCOORD_1":4},"indices":0,"material":0}],"name":"Browning_hp"},{"primitives":[{"attributes":{"POSITION":6,"NORMAL":7,"TEXCOORD_0":8,"TEXCOORD_1":9},"indices":5,"material":0}],"name":"Trigger"},{"primitives":[{"attributes":{"POSITION":11,"NORMAL":12,"TEXCOORD_0":13,"TEXCOORD_1":14},"indices":10,"material":0}],"name":"Bullet"},{"primitives":[{"attributes":{"POSITION":16,"NORMAL":17,"TEXCOORD_0":18,"TEXCOORD_1":19},"indices":15,"material":0}],"name":"Clip"}],"accessors":[{"bufferView":0,"componentType":5123,"count":10899,"type":"SCALAR","name":"accessorIndices"},{"bufferView":1,"componentType":5126,"count":10899,"max":[9.064597,1.34063232,5.77012825],"min":[-9.064598,-1.34063232,-5.77012825],"type":"VEC3","name":"accessorPositions"},{"bufferView":1,"byteOffset":130788,"componentType":5126,"count":10899,"type":"VEC3","name":"accessorNormals"},{"bufferView":2,"componentType":5126,"count":10899,"type":"VEC2","name":"accessorUVs"},{"bufferView":2,"byteOffset":87192,"componentType":5126,"count":10899,"type":"VEC2","name":"accessorUV2s"},{"bufferView":0,"byteOffset":21800,"componentType":5123,"count":276,"type":"SCALAR","name":"accessorIndices"},{"bufferView":1,"byteOffset":261576,"componentType":5126,"count":276,"max":[1.11128664,0.2510906,2.14328814],"min":[-1.11128783,-0.251090229,-0.131121829],"type":"VEC3","name":"accessorPositions"},{"bufferView":1,"byteOffset":264888,"componentType":5126,"count":276,"type":"VEC3","name":"accessorNormals"},{"bufferView":2,"byteOffset":174384,"componentType":5126,"count":276,"type":"VEC2","name":"accessorUVs"},{"bufferView":2,"byteOffset":176592,"componentType":5126,"count":276,"type":"VEC2","name":"accessorUV2s"},{"bufferView":0,"byteOffset":22352,"componentType":5123,"count":714,"type":"SCALAR","name":"accessorIndices"},{"bufferView":1,"byteOffset":268200,"componentType":5126,"count":714,"max":[1.21549439,0.439681679,0.453764319],"min":[-1.215495,-0.4396815,-0.453764647],"type":"VEC3","name":"accessorPositions"},{"bufferView":1,"byteOffset":276768,"componentType":5126,"count":714,"type":"VEC3","name":"accessorNormals"},{"bufferView":2,"byteOffset":178800,"componentType":5126,"count":714,"type":"VEC2","name":"accessorUVs"},{"bufferView":2,"byteOffset":184512,"componentType":5126,"count":714,"type":"VEC2","name":"accessorUV2s"},{"bufferView":0,"byteOffset":23780,"componentType":5123,"count":1371,"type":"SCALAR","name":"accessorIndices"},{"bufferView":1,"byteOffset":285336,"componentType":5126,"count":1371,"max":[2.38465381,1.02766371,4.62541962],"min":[-2.38465261,-1.02766359,-4.62542],"type":"VEC3","name":"accessorPositions"},{"bufferView":1,"byteOffset":301788,"componentType":5126,"count":1371,"type":"VEC3","name":"accessorNormals"},{"bufferView":2,"byteOffset":190224,"componentType":5126,"count":1371,"type":"VEC2","name":"accessorUVs"},{"bufferView":2,"byteOffset":201192,"componentType":5126,"count":1371,"type":"VEC2","name":"accessorUV2s"}],"bufferViews":[{"buffer":0,"byteLength":26524,"name":"bufferViewScalar"},{"buffer":0,"byteOffset":26524,"byteLength":318240,"byteStride":12,"name":"bufferViewFloatVec3"},{"buffer":0,"byteOffset":344764,"byteLength":212160,"byteStride":8,"name":"bufferViewFloatVec2"}],"buffers":[{"uri":"PBR_Pistol.bin","byteLength":556924}],"materials":[{"pbrMetallicRoughness":{"baseColorTexture":{"index":1},"metallicRoughnessTexture":{"index":2}},"normalTexture":{"index":0},"name":"Material #25"}],"textures":[{"sampler":0,"source":0,"name":"Normal 1.jpg"},{"sampler":0,"source":1,"name":"Base_color 1.jpg"},{"sampler":0,"source":2,"name":"Gloss(Rough)Metalness 1.jpg"}],"images":[{"uri":"./Normal 1.jpg"},{"uri":"./Base_color 1.jpg"},{"uri":"./Gloss(Rough)Metalness 1.jpg"}],"samplers":[{"magFilter":9729,"minFilter":9987}]}